<svg xmlns="http://www.w3.org/2000/svg" xmlns:xlink="http://www.w3.org/1999/xlink" width="60" zoomAndPan="magnify" viewBox="0 0 45 44.999999" height="60" preserveAspectRatio="xMidYMid meet" version="1.0"><defs><clipPath id="0a5a5d519b"><path d="M 11 1.1875 L 29 1.1875 L 29 19 L 11 19 Z M 11 1.1875 " clip-rule="nonzero"/></clipPath><clipPath id="a489c4a3a3"><path d="M 4.5 21 L 36 21 L 36 43.9375 L 4.5 43.9375 Z M 4.5 21 " clip-rule="nonzero"/></clipPath><clipPath id="cf6dbceaca"><path d="M 30 11 L 41.25 11 L 41.25 23 L 30 23 Z M 30 11 " clip-rule="nonzero"/></clipPath></defs><g clip-path="url(#0a5a5d519b)"><path fill="#000000" d="M 20.195312 18.617188 C 25.003906 18.617188 28.921875 14.707031 28.921875 9.90625 C 28.921875 5.101562 25.007812 1.195312 20.195312 1.195312 C 15.382812 1.195312 11.46875 5.101562 11.46875 9.90625 C 11.46875 14.707031 15.382812 18.617188 20.195312 18.617188 Z M 20.195312 18.617188 " fill-opacity="1" fill-rule="nonzero"/></g><g clip-path="url(#a489c4a3a3)"><path fill="#000000" d="M 20.191406 21.136719 C 11.535156 21.136719 4.496094 28.167969 4.496094 36.808594 L 4.496094 38.75 C 4.496094 41.605469 6.824219 43.933594 9.6875 43.933594 L 30.699219 43.933594 C 33.5625 43.933594 35.894531 41.605469 35.894531 38.75 L 35.894531 36.808594 C 35.894531 28.167969 28.851562 21.136719 20.191406 21.136719 Z M 20.191406 21.136719 " fill-opacity="1" fill-rule="nonzero"/></g><g clip-path="url(#cf6dbceaca)"><path fill="#000000" d="M 39.828125 15.765625 L 37.0625 15.765625 L 37.0625 13.007812 C 37.0625 12.21875 36.425781 11.582031 35.636719 11.582031 C 34.847656 11.582031 34.207031 12.21875 34.207031 13.007812 L 34.207031 15.765625 L 31.445312 15.765625 C 30.65625 15.765625 30.015625 16.40625 30.015625 17.191406 C 30.015625 17.976562 30.65625 18.617188 31.445312 18.617188 L 34.207031 18.617188 L 34.207031 21.375 C 34.207031 22.164062 34.847656 22.800781 35.636719 22.800781 C 36.425781 22.800781 37.0625 22.164062 37.0625 21.375 L 37.0625 18.617188 L 39.828125 18.617188 C 40.617188 18.617188 41.253906 17.976562 41.253906 17.191406 C 41.253906 16.40625 40.617188 15.765625 39.828125 15.765625 Z M 39.828125 15.765625 " fill-opacity="1" fill-rule="nonzero"/></g></svg>