<svg xmlns="http://www.w3.org/2000/svg" xmlns:xlink="http://www.w3.org/1999/xlink" width="60" zoomAndPan="magnify" viewBox="0 0 45 44.999999" height="60" preserveAspectRatio="xMidYMid meet" version="1.0"><defs><clipPath id="9400119d3b"><path d="M 1.863281 8.984375 L 43.113281 8.984375 L 43.113281 35.984375 L 1.863281 35.984375 Z M 1.863281 8.984375 " clip-rule="nonzero"/></clipPath></defs><g clip-path="url(#9400119d3b)"><path fill="#000000" d="M 3.839844 8.984375 L 41.160156 8.984375 C 41.683594 8.984375 42.160156 9.1875 42.507812 9.519531 C 42.871094 9.863281 43.09375 10.335938 43.09375 10.859375 L 43.09375 34.128906 C 43.09375 34.652344 42.871094 35.128906 42.507812 35.46875 C 42.160156 35.800781 41.683594 36.007812 41.160156 36.007812 L 3.839844 36.007812 C 3.320312 36.007812 2.84375 35.800781 2.492188 35.46875 C 2.132812 35.128906 1.910156 34.652344 1.910156 34.128906 L 1.910156 10.859375 C 1.910156 10.335938 2.132812 9.863281 2.492188 9.519531 C 2.84375 9.1875 3.320312 8.984375 3.839844 8.984375 Z M 7.453125 12.84375 C 7.003906 12.84375 6.648438 13.101562 6.4375 13.519531 C 6.3125 13.761719 6.234375 14.078125 6.234375 14.410156 L 6.234375 30.582031 C 6.234375 30.910156 6.3125 31.226562 6.4375 31.46875 C 6.648438 31.886719 7.003906 32.148438 7.453125 32.148438 L 20.007812 32.148438 C 20.457031 32.148438 20.816406 31.886719 21.027344 31.46875 C 21.152344 31.226562 21.226562 30.910156 21.226562 30.582031 L 21.226562 14.410156 C 21.226562 14.078125 21.152344 13.761719 21.027344 13.519531 C 20.816406 13.101562 20.457031 12.84375 20.007812 12.84375 Z M 25.074219 30.429688 L 25.074219 32.148438 L 39.660156 32.148438 L 39.660156 30.429688 Z M 25.074219 12.84375 L 25.074219 14.558594 L 39.660156 14.558594 L 39.660156 12.84375 Z M 25.074219 18.707031 L 25.074219 20.421875 L 39.660156 20.421875 L 39.660156 18.707031 Z M 25.074219 24.570312 L 25.074219 26.285156 L 39.660156 26.285156 L 39.660156 24.570312 L 25.074219 24.570312 " fill-opacity="1" fill-rule="evenodd"/></g><path fill="#000000" d="M 13.71875 16.109375 C 14.722656 16.109375 15.628906 16.519531 16.289062 17.175781 C 16.945312 17.832031 17.355469 18.742188 17.355469 19.746094 C 17.355469 20.75 16.945312 21.660156 16.289062 22.316406 C 15.628906 22.976562 14.722656 23.382812 13.71875 23.382812 C 12.714844 23.382812 11.804688 22.976562 11.148438 22.316406 C 10.488281 21.660156 10.082031 20.75 10.082031 19.746094 C 10.082031 18.742188 10.488281 17.832031 11.148438 17.175781 C 11.804688 16.519531 12.714844 16.109375 13.71875 16.109375 " fill-opacity="1" fill-rule="nonzero"/><path fill="#000000" d="M 10.394531 23.351562 L 17.042969 23.351562 C 17.425781 23.351562 17.777344 23.507812 18.027344 23.761719 C 18.28125 24.015625 18.4375 24.363281 18.4375 24.746094 L 18.4375 31.933594 L 9 31.933594 L 9 24.746094 C 9 24.363281 9.15625 24.015625 9.40625 23.761719 C 9.660156 23.507812 10.007812 23.351562 10.394531 23.351562 " fill-opacity="1" fill-rule="nonzero"/></svg>