<svg xmlns="http://www.w3.org/2000/svg" xmlns:xlink="http://www.w3.org/1999/xlink" width="60" zoomAndPan="magnify" viewBox="0 0 45 44.999999" height="60" preserveAspectRatio="xMidYMid meet" version="1.0"><defs><clipPath id="945b5bcdb0"><path d="M 2.363281 2.363281 L 42.863281 2.363281 L 42.863281 42.863281 L 2.363281 42.863281 Z M 2.363281 2.363281 " clip-rule="nonzero"/></clipPath><clipPath id="7a887f65f2"><path d="M 20 18 L 42.863281 18 L 42.863281 40 L 20 40 Z M 20 18 " clip-rule="nonzero"/></clipPath></defs><path fill="#000000" d="M 38.941406 11.507812 L 40.25 11.507812 L 40.25 10.203125 L 38.941406 10.203125 L 38.941406 11.507812 " fill-opacity="1" fill-rule="nonzero"/><path fill="#000000" d="M 36.332031 11.507812 L 37.636719 11.507812 L 37.636719 10.203125 L 36.332031 10.203125 L 36.332031 11.507812 " fill-opacity="1" fill-rule="nonzero"/><path fill="#000000" d="M 33.71875 11.507812 L 35.023438 11.507812 L 35.023438 10.203125 L 33.71875 10.203125 L 33.71875 11.507812 " fill-opacity="1" fill-rule="nonzero"/><path fill="#000000" d="M 32.410156 10.203125 L 25.878906 10.203125 L 25.878906 11.507812 L 32.410156 11.507812 L 32.410156 10.203125 " fill-opacity="1" fill-rule="nonzero"/><path fill="#000000" d="M 40.25 7.589844 L 25.878906 7.589844 L 25.878906 8.894531 L 40.25 8.894531 L 40.25 7.589844 " fill-opacity="1" fill-rule="nonzero"/><path fill="#000000" d="M 40.25 4.976562 L 25.878906 4.976562 L 25.878906 6.28125 L 40.25 6.28125 L 40.25 4.976562 " fill-opacity="1" fill-rule="nonzero"/><g clip-path="url(#945b5bcdb0)"><path fill="#000000" d="M 41.554688 12.8125 L 35.023438 12.8125 L 35.023438 16.496094 C 35.023438 16.699219 34.734375 16.800781 34.605469 16.648438 L 31.410156 12.8125 L 24.570312 12.8125 L 24.570312 3.667969 L 41.554688 3.667969 Z M 28.492188 19.347656 C 28.492188 25.832031 23.21875 31.105469 16.734375 31.105469 C 10.25 31.105469 4.976562 25.832031 4.976562 19.347656 C 4.976562 12.863281 10.25 7.589844 16.734375 7.589844 C 19.082031 7.589844 21.328125 8.28125 23.265625 9.578125 L 23.265625 11.207031 C 21.421875 9.730469 19.117188 8.894531 16.734375 8.894531 C 10.96875 8.894531 6.28125 13.582031 6.28125 19.347656 C 6.28125 25.109375 10.96875 29.796875 16.734375 29.796875 C 22.496094 29.796875 27.183594 25.109375 27.183594 19.347656 C 27.183594 17.484375 26.699219 15.703125 25.777344 14.121094 L 27.265625 14.121094 C 28.0625 15.734375 28.492188 17.53125 28.492188 19.347656 Z M 10.449219 33.363281 L 8.074219 31.9375 L 9.171875 29.980469 C 9.921875 30.515625 10.71875 30.972656 11.570312 31.339844 Z M 6.132812 41.136719 C 5.90625 41.535156 5.347656 41.671875 4.96875 41.421875 L 4.03125 40.792969 C 3.804688 40.640625 3.667969 40.390625 3.667969 40.121094 L 3.667969 39.980469 C 3.667969 39.839844 3.703125 39.703125 3.773438 39.582031 L 7.433594 33.078125 L 9.8125 34.507812 Z M 19.148438 18.507812 C 20.0625 17.789062 20.652344 16.675781 20.652344 15.425781 C 20.652344 13.265625 18.894531 11.507812 16.734375 11.507812 C 14.570312 11.507812 12.8125 13.265625 12.8125 15.425781 C 12.8125 16.675781 13.40625 17.789062 14.320312 18.507812 C 11.910156 19.472656 10.203125 21.824219 10.203125 24.570312 L 10.203125 25.734375 C 8.589844 24.085938 7.589844 21.832031 7.589844 19.347656 C 7.589844 14.304688 11.691406 10.203125 16.734375 10.203125 C 19.195312 10.203125 21.566406 11.214844 23.285156 12.976562 C 23.34375 13.488281 23.703125 13.90625 24.183594 14.058594 C 25.289062 15.609375 25.878906 17.429688 25.878906 19.347656 C 25.878906 21.832031 24.878906 24.085938 23.265625 25.734375 L 23.265625 24.570312 C 23.265625 21.824219 21.554688 19.472656 19.148438 18.507812 Z M 21.960938 26.839844 C 20.476562 27.875 18.675781 28.492188 16.734375 28.492188 C 14.792969 28.492188 12.988281 27.875 11.507812 26.839844 L 11.507812 24.570312 C 11.507812 21.691406 13.851562 19.347656 16.734375 19.347656 C 19.613281 19.347656 21.960938 21.691406 21.960938 24.570312 Z M 14.121094 15.425781 C 14.121094 13.984375 15.292969 12.8125 16.734375 12.8125 C 18.175781 12.8125 19.347656 13.984375 19.347656 15.425781 C 19.347656 16.867188 18.175781 18.039062 16.734375 18.039062 C 15.292969 18.039062 14.121094 16.867188 14.121094 15.425781 Z M 41.554688 2.363281 L 24.570312 2.363281 C 23.851562 2.363281 23.265625 2.949219 23.265625 3.667969 L 23.265625 8.039062 C 21.285156 6.890625 19.054688 6.28125 16.734375 6.28125 C 9.53125 6.28125 3.667969 12.144531 3.667969 19.347656 C 3.667969 23.257812 5.402344 26.765625 8.136719 29.160156 L 2.636719 38.941406 C 2.457031 39.257812 2.363281 39.617188 2.363281 39.980469 L 2.363281 40.121094 C 2.363281 40.828125 2.714844 41.488281 3.304688 41.882812 L 4.242188 42.503906 C 4.59375 42.738281 5 42.863281 5.417969 42.863281 C 6.1875 42.863281 6.898438 42.445312 7.273438 41.773438 L 12.808594 31.804688 C 14.050781 32.195312 15.367188 32.410156 16.734375 32.410156 C 23.9375 32.410156 29.796875 26.550781 29.796875 19.347656 C 29.796875 17.542969 29.417969 15.761719 28.703125 14.121094 L 30.796875 14.121094 L 33.601562 17.484375 C 33.894531 17.839844 34.328125 18.039062 34.785156 18.039062 C 35.640625 18.039062 36.332031 17.347656 36.332031 16.496094 L 36.332031 14.121094 L 41.554688 14.121094 C 42.277344 14.121094 42.863281 13.535156 42.863281 12.8125 L 42.863281 3.667969 C 42.863281 2.949219 42.277344 2.363281 41.554688 2.363281 " fill-opacity="1" fill-rule="nonzero"/></g><g clip-path="url(#7a887f65f2)"><path fill="#000000" d="M 37.636719 24.570312 L 37.636719 25.226562 C 37.636719 25.453125 37.632812 25.6875 37.617188 25.917969 C 37.300781 31.761719 33.992188 35.632812 28.191406 37.074219 C 31.929688 34.625 34.203125 31.378906 34.835938 27.550781 C 34.960938 26.785156 35.023438 26.003906 35.023438 25.226562 L 35.023438 24.570312 L 33.09375 24.570312 L 36.332031 20.410156 L 39.566406 24.570312 Z M 30.421875 25.878906 L 33.699219 25.878906 C 33.675781 26.367188 33.621094 26.855469 33.542969 27.339844 C 32.808594 31.8125 29.699219 35.296875 24.308594 37.691406 L 20.898438 39.207031 L 24.617188 38.941406 C 33.300781 38.320312 38.511719 33.601562 38.921875 25.988281 C 38.925781 25.949219 38.925781 25.914062 38.929688 25.878906 L 42.238281 25.878906 L 36.332031 18.28125 L 30.421875 25.878906 " fill-opacity="1" fill-rule="nonzero"/></g></svg>