<svg xmlns="http://www.w3.org/2000/svg" xmlns:xlink="http://www.w3.org/1999/xlink" width="60" zoomAndPan="magnify" viewBox="0 0 45 44.999999" height="60" preserveAspectRatio="xMidYMid meet" version="1.0"><defs><clipPath id="7caaa90a2a"><path d="M 3 0.535156 L 15 0.535156 L 15 8 L 3 8 Z M 3 0.535156 " clip-rule="nonzero"/></clipPath><clipPath id="6b9e9075b9"><path d="M 0 2 L 45 2 L 45 44.785156 L 0 44.785156 Z M 0 2 " clip-rule="nonzero"/></clipPath></defs><path fill="#08823f" d="M 0.179688 4.484375 C 0.734375 5.472656 1.332031 6.449219 2.121094 7.277344 C 2.902344 8.125 3.796875 8.851562 4.75 9.460938 C 5.085938 9.671875 5.429688 9.867188 5.773438 10.058594 C 5.777344 10.0625 5.777344 10.066406 5.777344 10.070312 C 5.394531 13.59375 6.753906 18.640625 6.921875 19.242188 C 6.925781 19.253906 6.941406 19.25 6.941406 19.238281 C 7.03125 17.140625 8.269531 16.777344 8.390625 16.75 C 8.394531 16.746094 8.398438 16.75 8.398438 16.757812 C 9.179688 22.3125 14.863281 26.210938 14.863281 26.210938 C 18.035156 28.539062 19.640625 31.914062 19.707031 36.4375 C 19.707031 36.445312 19.714844 36.453125 19.722656 36.449219 C 25.03125 33.210938 23.230469 26.144531 23.140625 25.800781 C 23.136719 25.792969 23.144531 25.789062 23.152344 25.789062 C 23.777344 25.875 24.574219 27.269531 24.691406 27.484375 C 24.695312 27.492188 24.707031 27.488281 24.710938 27.480469 C 25.714844 18.429688 18.800781 11.402344 18.519531 11.179688 C 18.515625 11.175781 18.515625 11.171875 18.519531 11.167969 C 19.402344 10.285156 21.074219 10.855469 21.441406 10.996094 C 21.453125 11 21.457031 10.984375 21.449219 10.976562 C 12.019531 3.910156 7.777344 8.117188 7.179688 8.617188 C 7.175781 8.621094 7.175781 8.625 7.183594 8.628906 C 16.976562 12.128906 18.859375 21.964844 19.050781 23.148438 C 19.054688 23.160156 19.035156 23.167969 19.03125 23.15625 C 18.644531 22.003906 17.636719 20.300781 16.890625 19.109375 C 16.441406 18.347656 15.957031 17.609375 15.449219 16.886719 C 14.804688 15.992188 14.117188 15.125 13.386719 14.292969 C 12.640625 13.457031 11.785156 12.726562 10.878906 12.078125 C 9.050781 10.785156 7.019531 9.886719 5.277344 8.660156 C 4.410156 8.046875 3.625 7.335938 2.953125 6.539062 C 2.269531 5.746094 1.769531 4.816406 1.300781 3.882812 L 1.28125 3.839844 C 1.277344 3.832031 1.269531 3.824219 1.265625 3.816406 C 1.085938 3.492188 0.667969 3.390625 0.355469 3.601562 C 0.0742188 3.792969 0.015625 4.1875 0.179688 4.484375 " fill-opacity="1" fill-rule="nonzero"/><g clip-path="url(#7caaa90a2a)"><path fill="#08823f" d="M 13.902344 0.535156 C 13.902344 0.535156 13.898438 0.535156 13.898438 0.535156 C 12.835938 1.710938 11.609375 2.222656 10.179688 2.085938 C 10.179688 2.085938 7.6875 1.777344 6.1875 3.054688 C 6.183594 3.054688 6.183594 3.054688 6.179688 3.054688 C 6.15625 3.019531 5.890625 2.632812 6.347656 2.058594 C 6.351562 2.054688 6.347656 2.050781 6.34375 2.054688 C 6.195312 2.148438 5.191406 2.800781 4.433594 3.578125 C 4.269531 3.742188 4.121094 3.910156 3.996094 4.078125 C 3.992188 4.082031 3.992188 4.085938 3.988281 4.089844 C 3.898438 4.226562 3.828125 4.363281 3.769531 4.496094 C 4.433594 4.601562 5.109375 4.789062 5.804688 4.867188 C 6.210938 4.910156 6.617188 4.921875 7.019531 4.875 C 7.417969 4.828125 7.808594 4.761719 8.199219 4.675781 C 8.507812 4.605469 8.8125 4.527344 9.113281 4.429688 C 9.597656 4.292969 10.273438 4.082031 10.648438 3.871094 C 10.652344 3.867188 10.65625 3.875 10.652344 3.878906 C 10.324219 4.144531 7.53125 6.289062 3.972656 4.90625 C 3.96875 4.90625 3.96875 4.90625 3.96875 4.910156 C 4.023438 5.179688 4.246094 7.285156 8.523438 7.640625 C 8.527344 7.644531 8.527344 7.636719 8.523438 7.632812 C 8.386719 7.585938 7.789062 7.34375 7.742188 6.902344 C 7.742188 6.902344 7.742188 6.902344 7.746094 6.898438 C 7.875 6.90625 11.4375 6.6875 13.238281 4.070312 C 13.242188 4.066406 13.238281 4.0625 13.234375 4.0625 C 13.152344 4.089844 12.609375 4.269531 12.414062 4.144531 C 12.410156 4.144531 12.410156 4.140625 12.410156 4.140625 C 12.515625 4.070312 14.648438 2.636719 13.902344 0.535156 " fill-opacity="1" fill-rule="nonzero"/></g><g clip-path="url(#6b9e9075b9)"><path fill="#08823f" d="M 10.589844 42.097656 C 10.015625 42.097656 9.421875 41.863281 8.8125 41.390625 C 8.195312 40.917969 7.890625 40.328125 7.890625 39.617188 L 7.890625 20.300781 C 7.675781 20.5 7.398438 20.636719 7.089844 20.671875 C 6.390625 20.75 5.742188 20.3125 5.554688 19.628906 C 5.484375 19.382812 5.195312 20.488281 5.195312 20.488281 L 5.195312 38.664062 C 5.195312 40.875 4.257812 41.980469 2.386719 41.980469 C 1.792969 41.980469 1.269531 42.113281 0.820312 42.375 C 0.371094 42.636719 0.148438 42.945312 0.148438 43.296875 C 0.148438 43.644531 0.339844 43.980469 0.722656 44.304688 C 1.105469 44.625 1.601562 44.785156 2.210938 44.785156 C 2.632812 44.785156 3.34375 44.671875 4.351562 44.453125 C 5.351562 44.230469 6.144531 44.117188 6.71875 44.117188 C 7.15625 44.117188 7.90625 44.21875 8.96875 44.421875 C 10.03125 44.625 10.675781 44.726562 10.902344 44.726562 C 12.300781 44.726562 12.996094 44.308594 12.996094 43.46875 C 12.996094 42.554688 12.195312 42.097656 10.589844 42.097656 Z M 44.667969 42.585938 C 44.457031 42.355469 43.800781 42.132812 42.703125 41.910156 C 41.601562 41.6875 40.871094 41.273438 40.507812 40.667969 C 40.144531 40.0625 39.960938 39.367188 39.960938 38.578125 L 39.960938 8.972656 C 39.960938 7.988281 40.03125 7.371094 40.164062 7.109375 C 40.296875 6.851562 40.667969 6.429688 41.28125 5.839844 C 41.894531 5.253906 42.613281 4.960938 43.433594 4.960938 C 44.429688 4.960938 44.925781 4.617188 44.925781 3.9375 C 44.925781 3.097656 44.410156 2.675781 43.378906 2.675781 C 43.261719 2.675781 42.96875 2.726562 42.503906 2.820312 C 42.035156 2.917969 41.648438 2.96875 41.34375 2.96875 C 41.015625 2.96875 40.539062 2.929688 39.90625 2.851562 C 39.277344 2.773438 38.828125 2.734375 38.5625 2.734375 C 37.988281 2.734375 37.449219 2.917969 36.941406 3.285156 C 36.4375 3.648438 35.828125 4.527344 35.121094 5.914062 C 33.246094 9.632812 30.269531 15.375 26.179688 23.144531 C 26.117188 23.265625 26.09375 23.402344 26.109375 23.539062 C 26.261719 24.84375 26.28125 26.214844 26.121094 27.636719 C 26.054688 28.257812 25.589844 28.769531 24.984375 28.894531 C 24.972656 28.894531 24.957031 28.898438 24.941406 28.898438 C 24.941406 29.449219 24.90625 30.015625 24.832031 30.589844 C 24.800781 30.835938 25.132812 30.941406 25.25 30.722656 C 26.535156 28.285156 27.933594 25.582031 29.441406 22.605469 L 33.882812 13.859375 C 34.390625 12.839844 34.714844 12.328125 34.855469 12.328125 C 34.949219 12.328125 35 12.859375 35 13.917969 L 35 38.6875 C 35 40.074219 34.824219 40.957031 34.46875 41.332031 C 34.113281 41.707031 33.242188 41.972656 31.84375 42.125 C 31.273438 42.183594 30.847656 42.285156 30.582031 42.429688 C 30.316406 42.574219 30.179688 42.867188 30.179688 43.3125 C 30.179688 44.214844 30.792969 44.667969 32.011719 44.667969 C 32.605469 44.667969 33.585938 44.578125 34.960938 44.394531 C 36.335938 44.210938 37.289062 44.117188 37.824219 44.117188 C 38.625 44.117188 39.628906 44.210938 40.832031 44.394531 C 42.035156 44.578125 42.84375 44.667969 43.265625 44.667969 C 43.816406 44.667969 44.242188 44.550781 44.539062 44.308594 C 44.835938 44.066406 44.984375 43.773438 44.984375 43.425781 C 44.984375 43.101562 44.878906 42.820312 44.667969 42.585938 " fill-opacity="1" fill-rule="nonzero"/></g></svg>