<svg xmlns="http://www.w3.org/2000/svg" xmlns:xlink="http://www.w3.org/1999/xlink" width="60" zoomAndPan="magnify" viewBox="0 0 45 44.999999" height="60" preserveAspectRatio="xMidYMid meet" version="1.0"><defs><clipPath id="1ef71e9f01"><path d="M 2.183594 0 L 42.683594 0 L 42.683594 44 L 2.183594 44 Z M 2.183594 0 " clip-rule="nonzero"/></clipPath></defs><path fill="#08823f" d="M 37.792969 44.339844 C 37.898438 43.167969 37.957031 41.976562 37.761719 40.804688 C 37.585938 39.617188 37.242188 38.46875 36.78125 37.386719 C 36.617188 37.003906 36.4375 36.632812 36.253906 36.269531 C 36.25 36.265625 36.25 36.261719 36.253906 36.257812 C 38.640625 33.472656 40.421875 28.351562 40.628906 27.738281 C 40.636719 27.726562 40.621094 27.722656 40.613281 27.730469 C 39.308594 29.46875 38.035156 29.046875 37.914062 29.003906 C 37.910156 29 37.90625 28.996094 37.910156 28.988281 C 40.484375 23.777344 37.882812 17.089844 37.882812 17.089844 C 36.519531 13.222656 37.113281 9.390625 39.699219 5.484375 C 39.707031 5.476562 39.699219 5.464844 39.691406 5.464844 C 33.242188 5.097656 30.660156 12.203125 30.539062 12.550781 C 30.535156 12.558594 30.527344 12.558594 30.523438 12.554688 C 30.03125 12.113281 30.164062 10.449219 30.191406 10.195312 C 30.191406 10.1875 30.175781 10.183594 30.171875 10.191406 C 24.015625 17.332031 25.847656 27.421875 25.960938 27.78125 C 25.960938 27.789062 25.957031 27.792969 25.953125 27.792969 C 24.679688 28.027344 23.578125 26.550781 23.34375 26.214844 C 23.339844 26.203125 23.324219 26.214844 23.328125 26.226562 C 27.296875 37.839844 33.398438 36.746094 34.199219 36.671875 C 34.207031 36.671875 34.207031 36.664062 34.203125 36.65625 C 27.839844 27.882812 31.972656 18.363281 32.5 17.234375 C 32.503906 17.222656 32.519531 17.226562 32.519531 17.238281 C 32.179688 18.453125 32.046875 20.503906 31.996094 21.964844 C 31.933594 22.878906 31.917969 23.796875 31.933594 24.714844 C 31.960938 25.863281 32.046875 27.007812 32.1875 28.152344 C 32.339844 29.304688 32.648438 30.4375 33.046875 31.527344 C 33.863281 33.710938 35.082031 35.679688 35.863281 37.757812 C 36.246094 38.796875 36.503906 39.863281 36.613281 40.945312 C 36.742188 42.023438 36.628906 43.117188 36.480469 44.191406 L 36.476562 44.238281 C 36.472656 44.25 36.472656 44.257812 36.472656 44.265625 C 36.4375 44.652344 36.738281 44.988281 37.132812 44.988281 C 37.480469 44.992188 37.761719 44.691406 37.792969 44.339844 " fill-opacity="1" fill-rule="nonzero"/><path fill="#08823f" d="M 21.328125 40.125 C 21.328125 40.128906 21.332031 40.128906 21.332031 40.128906 C 22.9375 39.785156 24.285156 40.101562 25.414062 41.082031 C 25.414062 41.082031 27.335938 42.859375 29.375 42.695312 C 29.378906 42.695312 29.378906 42.695312 29.378906 42.699219 C 29.378906 42.742188 29.371094 43.230469 28.640625 43.433594 C 28.636719 43.4375 28.636719 43.441406 28.640625 43.441406 C 28.820312 43.453125 30.066406 43.511719 31.175781 43.320312 C 31.410156 43.28125 31.636719 43.230469 31.847656 43.164062 C 31.851562 43.164062 31.855469 43.160156 31.859375 43.160156 C 32.015625 43.097656 32.160156 43.023438 32.289062 42.949219 C 31.789062 42.457031 31.332031 41.886719 30.789062 41.398438 C 30.472656 41.117188 30.132812 40.859375 29.765625 40.652344 C 29.398438 40.453125 29.027344 40.269531 28.648438 40.101562 C 28.347656 39.976562 28.035156 39.859375 27.726562 39.753906 C 27.234375 39.574219 26.535156 39.34375 26.089844 39.292969 C 26.085938 39.292969 26.085938 39.285156 26.089844 39.285156 C 26.527344 39.261719 30.183594 39.152344 32.363281 42.480469 C 32.363281 42.480469 32.367188 42.480469 32.367188 42.480469 C 32.488281 42.21875 33.5625 40.308594 30.15625 37.40625 C 30.15625 37.402344 30.148438 37.410156 30.152344 37.414062 C 30.238281 37.535156 30.601562 38.105469 30.375 38.503906 C 30.371094 38.503906 30.371094 38.503906 30.371094 38.503906 C 30.265625 38.417969 27.117188 36.441406 24.015625 37.550781 C 24.011719 37.554688 24.011719 37.558594 24.015625 37.558594 C 24.101562 37.585938 24.671875 37.765625 24.761719 37.988281 C 24.761719 37.992188 24.761719 37.992188 24.757812 37.992188 C 24.628906 37.988281 21.960938 37.902344 21.328125 40.125 " fill-opacity="1" fill-rule="nonzero"/><g clip-path="url(#1ef71e9f01)"><path fill="#08823f" d="M 24.589844 18.8125 L 20.152344 12.875 C 15.199219 6.25 12.304688 2.46875 11.460938 1.53125 C 10.613281 0.59375 9.90625 0.125 9.332031 0.125 C 8.992188 0.125 8.582031 0.179688 8.09375 0.289062 C 7.609375 0.398438 7.183594 0.453125 6.828125 0.453125 C 6.351562 0.453125 5.757812 0.398438 5.039062 0.289062 C 4.328125 0.179688 3.878906 0.125 3.699219 0.125 C 2.6875 0.125 2.183594 0.539062 2.183594 1.367188 C 2.183594 1.832031 2.355469 2.175781 2.703125 2.398438 C 3.054688 2.621094 3.734375 2.730469 4.75 2.730469 C 5.507812 2.730469 6.132812 3.019531 6.632812 3.597656 C 7.128906 4.175781 7.378906 4.953125 7.378906 5.929688 L 7.378906 37.796875 C 7.378906 38.8125 7.085938 39.59375 6.5 40.140625 C 5.910156 40.6875 5.128906 40.960938 4.152344 40.960938 C 2.960938 40.960938 2.363281 41.355469 2.363281 42.144531 C 2.363281 43.09375 2.867188 43.570312 3.878906 43.570312 C 4.199219 43.570312 4.972656 43.484375 6.203125 43.3125 C 7.4375 43.144531 8.3125 43.058594 8.828125 43.058594 C 9.207031 43.058594 10.027344 43.144531 11.300781 43.3125 C 12.570312 43.484375 13.527344 43.570312 14.164062 43.570312 C 14.816406 43.570312 15.234375 43.46875 15.414062 43.265625 C 15.59375 43.0625 15.679688 42.800781 15.679688 42.480469 C 15.679688 41.425781 14.882812 40.902344 13.292969 40.902344 C 12.65625 40.902344 11.980469 40.652344 11.277344 40.15625 C 10.570312 39.65625 10.214844 38.992188 10.214844 38.152344 L 10.214844 10.519531 C 10.214844 9.761719 10.367188 9.382812 10.664062 9.382812 C 10.886719 9.382812 11.125 9.550781 11.382812 9.890625 L 22.691406 24.871094 C 23.179688 24.636719 23.75 24.695312 24.179688 24.988281 C 24.105469 23.328125 24.152344 21.160156 24.589844 18.8125 Z M 27.375 27.34375 C 27.378906 27.355469 27.382812 27.371094 27.386719 27.386719 C 27.382812 27.367188 27.375 27.351562 27.375 27.34375 Z M 40.894531 0.1875 C 40.457031 0.1875 39.746094 0.273438 38.761719 0.453125 C 37.777344 0.636719 36.988281 0.722656 36.394531 0.722656 C 35.933594 0.722656 35.019531 0.605469 33.636719 0.363281 C 32.253906 0.125 31.445312 0.00390625 31.207031 0.00390625 C 30.75 0.00390625 30.328125 0.136719 29.941406 0.40625 C 29.554688 0.671875 29.359375 1.03125 29.359375 1.488281 C 29.359375 1.863281 29.570312 2.167969 29.988281 2.40625 C 30.40625 2.644531 30.953125 2.761719 31.628906 2.761719 C 32.507812 2.761719 33.226562 3.007812 33.792969 3.496094 C 34.300781 3.933594 34.578125 4.496094 34.636719 5.191406 C 35.582031 4.648438 36.644531 4.25 37.824219 4.070312 C 37.980469 3.757812 38.238281 3.480469 38.605469 3.242188 C 39.09375 2.921875 39.855469 2.761719 40.886719 2.761719 C 42.082031 2.761719 42.679688 2.378906 42.679688 1.605469 C 42.679688 0.660156 42.085938 0.1875 40.894531 0.1875 " fill-opacity="1" fill-rule="nonzero"/></g></svg>