<svg xmlns="http://www.w3.org/2000/svg" xmlns:xlink="http://www.w3.org/1999/xlink" width="60" zoomAndPan="magnify" viewBox="0 0 45 44.999999" height="60" preserveAspectRatio="xMidYMid meet" version="1.0"><defs><clipPath id="1249abb4f4"><path d="M 20 10 L 44 10 L 44 44.84375 L 20 44.84375 Z M 20 10 " clip-rule="nonzero"/></clipPath><clipPath id="3bfc4ce171"><path d="M 0 0.59375 L 40 0.59375 L 40 44.84375 L 0 44.84375 Z M 0 0.59375 " clip-rule="nonzero"/></clipPath><clipPath id="fd2b7ad38a"><path d="M 22 41 L 34 41 L 34 44.84375 L 22 44.84375 Z M 22 41 " clip-rule="nonzero"/></clipPath></defs><g clip-path="url(#1249abb4f4)"><path fill="#08823f" d="M 20.167969 43.769531 C 20.652344 42.734375 21.183594 41.707031 21.917969 40.8125 C 22.644531 39.902344 23.496094 39.101562 24.414062 38.414062 C 24.742188 38.175781 25.074219 37.953125 25.40625 37.734375 C 25.410156 37.730469 25.414062 37.726562 25.414062 37.722656 C 24.75 34.214844 25.738281 29.039062 25.859375 28.425781 C 25.863281 28.414062 25.878906 28.414062 25.878906 28.425781 C 26.136719 30.523438 27.421875 30.792969 27.542969 30.8125 C 27.550781 30.8125 27.554688 30.808594 27.554688 30.804688 C 27.914062 25.164062 33.378906 20.808594 33.378906 20.808594 C 36.417969 18.21875 37.785156 14.703125 37.5 10.15625 C 37.5 10.148438 37.507812 10.144531 37.515625 10.148438 C 43.15625 12.980469 41.878906 20.21875 41.8125 20.570312 C 41.8125 20.578125 41.816406 20.582031 41.824219 20.582031 C 42.457031 20.449219 43.152344 18.984375 43.257812 18.757812 C 43.261719 18.75 43.273438 18.753906 43.277344 18.761719 C 45 27.773438 38.53125 35.367188 38.261719 35.613281 C 38.257812 35.617188 38.257812 35.621094 38.261719 35.625 C 39.226562 36.441406 40.878906 35.738281 41.238281 35.570312 C 41.25 35.5625 41.257812 35.578125 41.25 35.585938 C 32.226562 43.421875 27.59375 39.527344 26.949219 39.074219 C 26.941406 39.070312 26.945312 39.0625 26.953125 39.058594 C 36.621094 34.78125 37.765625 24.757812 37.871094 23.554688 C 37.871094 23.539062 37.851562 23.535156 37.851562 23.550781 C 37.542969 24.734375 36.65625 26.523438 35.988281 27.777344 C 35.59375 28.578125 35.160156 29.359375 34.699219 30.121094 C 34.113281 31.074219 33.484375 31.992188 32.808594 32.886719 C 32.117188 33.785156 31.304688 34.585938 30.433594 35.308594 C 28.679688 36.746094 26.6875 37.808594 25.011719 39.175781 C 24.179688 39.863281 23.441406 40.632812 22.820312 41.488281 C 22.1875 42.335938 21.75 43.308594 21.347656 44.285156 L 21.332031 44.328125 C 21.328125 44.335938 21.324219 44.34375 21.320312 44.355469 C 21.160156 44.695312 20.742188 44.832031 20.410156 44.640625 C 20.113281 44.46875 20.019531 44.082031 20.167969 43.769531 " fill-opacity="1" fill-rule="nonzero"/></g><path fill="#08823f" d="M 19.871094 29.445312 C 19.875 29.449219 19.878906 29.449219 19.878906 29.445312 C 19.964844 29.226562 19.675781 28.71875 19.632812 28.644531 C 19.628906 28.640625 19.632812 28.636719 19.636719 28.636719 C 22.589844 29.917969 23.519531 33.417969 23.535156 33.546875 C 23.535156 33.550781 23.539062 33.550781 23.539062 33.550781 C 23.964844 33.417969 24.085938 32.773438 24.109375 32.628906 C 24.109375 32.625 24.117188 32.625 24.117188 32.628906 C 24.613281 36.957031 22.574219 37.589844 22.3125 37.695312 C 22.3125 37.699219 22.308594 37.695312 22.3125 37.695312 C 22.972656 33.882812 20.292969 31.523438 19.960938 31.25 C 19.957031 31.246094 19.953125 31.253906 19.957031 31.257812 C 20.238281 31.585938 20.585938 32.214844 20.816406 32.671875 C 20.96875 32.953125 21.113281 33.242188 21.242188 33.535156 C 21.402344 33.90625 21.546875 34.28125 21.671875 34.667969 C 21.796875 35.058594 21.871094 35.46875 21.90625 35.878906 C 21.96875 36.585938 21.914062 37.292969 21.941406 37.976562 C 21.804688 37.945312 21.652344 37.902344 21.496094 37.839844 C 21.492188 37.835938 21.488281 37.835938 21.484375 37.835938 C 21.292969 37.742188 21.097656 37.625 20.902344 37.5 C 19.984375 36.894531 19.132812 36.023438 19.011719 35.898438 C 19.007812 35.894531 19.011719 35.890625 19.015625 35.890625 C 19.675781 36.230469 20.003906 35.894531 20.035156 35.859375 C 20.039062 35.859375 20.035156 35.855469 20.035156 35.855469 C 18.46875 34.613281 18.28125 32.070312 18.28125 32.070312 C 18.128906 30.625 17.378906 29.503906 16.003906 28.679688 C 16.003906 28.675781 16.003906 28.671875 16.003906 28.671875 C 17.9375 27.515625 19.785156 29.355469 19.871094 29.445312 " fill-opacity="1" fill-rule="nonzero"/><g clip-path="url(#3bfc4ce171)"><path fill="#08823f" d="M 38.113281 7.589844 C 34.21875 2.929688 28.867188 0.601562 22.050781 0.601562 C 17.6875 0.601562 13.839844 1.578125 10.5 3.527344 C 7.160156 5.476562 4.578125 8.148438 2.746094 11.546875 C 0.917969 14.941406 0 18.375 0 21.851562 C 0 28.484375 2.0625 33.957031 6.191406 38.265625 C 9.640625 41.863281 13.8125 43.957031 18.710938 44.550781 C 18.601562 44.097656 18.644531 43.609375 18.855469 43.160156 C 19.058594 42.726562 19.273438 42.28125 19.515625 41.839844 C 10.535156 40.878906 6.046875 34.214844 6.046875 21.847656 C 6.046875 16.796875 7.460938 12.429688 10.289062 8.746094 C 13.117188 5.0625 17.039062 3.222656 22.050781 3.222656 C 26.90625 3.222656 30.761719 5.015625 33.609375 8.601562 C 34.574219 9.816406 35.375 11.21875 36.015625 12.804688 C 36.097656 11.996094 36.113281 11.148438 36.058594 10.246094 C 36.054688 10.238281 36.054688 10.230469 36.054688 10.222656 C 36.03125 9.714844 36.289062 9.21875 36.71875 8.9375 C 37.148438 8.660156 37.707031 8.628906 38.164062 8.859375 C 38.824219 9.191406 39.410156 9.578125 39.925781 10.011719 C 39.378906 9.1875 38.773438 8.378906 38.113281 7.589844 " fill-opacity="1" fill-rule="nonzero"/></g><g clip-path="url(#fd2b7ad38a)"><path fill="#08823f" d="M 31.160156 41.890625 C 29.753906 41.894531 28.582031 41.578125 27.636719 41.148438 C 26.625 41.46875 25.542969 41.695312 24.390625 41.824219 C 24.25 41.992188 24.121094 42.160156 23.996094 42.332031 C 23.992188 42.339844 23.988281 42.347656 23.980469 42.351562 C 23.453125 43.054688 23.0625 43.925781 22.738281 44.707031 C 26.171875 44.589844 29.433594 43.867188 32.523438 42.542969 C 32.820312 42.417969 33.109375 42.28125 33.398438 42.136719 C 33.65625 42.007812 33.523438 41.617188 33.238281 41.675781 C 32.496094 41.824219 31.804688 41.890625 31.160156 41.890625 " fill-opacity="1" fill-rule="nonzero"/></g></svg>