<svg xmlns="http://www.w3.org/2000/svg" xmlns:xlink="http://www.w3.org/1999/xlink" width="60" zoomAndPan="magnify" viewBox="0 0 45 44.999999" height="60" preserveAspectRatio="xMidYMid meet" version="1.0"><defs><clipPath id="85e5addde3"><path d="M 0 6.304688 L 45 6.304688 L 45 40.804688 L 0 40.804688 Z M 0 6.304688 " clip-rule="nonzero"/></clipPath><clipPath id="85b8c06ba8"><path d="M 17 13 L 35 13 L 35 40.804688 L 17 40.804688 Z M 17 13 " clip-rule="nonzero"/></clipPath></defs><g clip-path="url(#85e5addde3)"><path fill="#08823f" d="M 43.46875 6.328125 C 43.050781 6.328125 42.421875 6.390625 41.582031 6.511719 C 40.742188 6.628906 40.121094 6.691406 39.71875 6.691406 C 39.09375 6.691406 38.484375 6.628906 37.890625 6.511719 C 37.296875 6.390625 36.886719 6.328125 36.664062 6.328125 C 36.1875 6.328125 35.785156 6.4375 35.457031 6.652344 C 35.132812 6.871094 34.96875 7.164062 34.96875 7.535156 C 34.96875 7.847656 35.121094 8.117188 35.425781 8.339844 C 35.730469 8.5625 36.101562 8.675781 36.53125 8.675781 C 37.488281 8.675781 37.964844 9.082031 37.964844 9.894531 C 37.964844 10.226562 37.882812 10.65625 37.71875 11.183594 L 34.257812 22.425781 C 34.324219 22.421875 34.390625 22.417969 34.460938 22.425781 C 35.015625 22.472656 35.453125 22.929688 35.484375 23.488281 C 35.527344 24.296875 35.539062 25.046875 35.515625 25.75 C 35.507812 25.984375 35.835938 26.042969 35.902344 25.816406 C 37.234375 21.421875 38.65625 16.636719 40.179688 11.453125 C 40.445312 10.578125 40.90625 9.882812 41.554688 9.363281 C 42.203125 8.84375 42.867188 8.585938 43.554688 8.585938 C 43.867188 8.585938 44.183594 8.488281 44.503906 8.292969 C 44.824219 8.101562 44.984375 7.8125 44.984375 7.421875 C 44.984375 6.695312 44.480469 6.328125 43.46875 6.328125 Z M 20.5 21.335938 C 20.429688 19.777344 19.96875 18.394531 19.105469 17.160156 L 15.179688 30.378906 C 15.09375 30.691406 15.011719 30.851562 14.9375 30.851562 C 14.863281 30.851562 14.765625 30.679688 14.648438 30.332031 C 11.457031 20.320312 9.308594 13.832031 8.203125 10.863281 C 7.964844 10.203125 7.84375 9.75 7.84375 9.511719 C 7.84375 9 8.246094 8.726562 9.050781 8.699219 C 10.097656 8.652344 10.617188 8.273438 10.617188 7.558594 C 10.617188 7.171875 10.4375 6.863281 10.082031 6.640625 C 9.726562 6.417969 9.277344 6.304688 8.742188 6.304688 C 8.503906 6.304688 8.023438 6.378906 7.292969 6.519531 C 6.5625 6.664062 5.886719 6.734375 5.261719 6.734375 C 4.445312 6.734375 3.71875 6.671875 3.085938 6.542969 C 2.453125 6.417969 1.960938 6.351562 1.605469 6.351562 C 0.546875 6.351562 0.0195312 6.738281 0.0195312 7.515625 C 0.0195312 7.925781 0.117188 8.203125 0.308594 8.347656 C 0.503906 8.492188 0.929688 8.617188 1.585938 8.71875 C 2.238281 8.824219 2.75 9.085938 3.117188 9.496094 C 3.480469 9.910156 3.804688 10.53125 4.089844 11.359375 L 13.144531 38.972656 C 13.363281 39.648438 13.53125 40.089844 13.640625 40.292969 C 13.753906 40.496094 13.964844 40.597656 14.273438 40.597656 C 14.480469 40.597656 14.664062 40.519531 14.828125 40.359375 C 14.988281 40.203125 15.171875 39.769531 15.378906 39.0625 L 20.507812 21.496094 C 20.503906 21.421875 20.503906 21.367188 20.5 21.335938 Z M 23.632812 7.320312 C 23.421875 6.675781 23.148438 6.351562 22.804688 6.351562 C 22.578125 6.351562 22.414062 6.429688 22.3125 6.589844 C 22.207031 6.746094 22.085938 7.074219 21.953125 7.570312 L 20.628906 12.03125 C 21.972656 12.234375 23.203125 12.800781 24.222656 13.476562 C 24.230469 13.46875 24.242188 13.460938 24.246094 13.453125 C 24.597656 13.097656 25.128906 13.015625 25.566406 13.25 L 23.632812 7.320312 " fill-opacity="1" fill-rule="nonzero"/></g><g clip-path="url(#85b8c06ba8)"><path fill="#08823f" d="M 29.398438 40.4375 C 28.992188 39.640625 28.613281 38.820312 28.417969 37.941406 C 28.207031 37.058594 28.117188 36.148438 28.132812 35.257812 C 28.140625 34.941406 28.164062 34.628906 28.1875 34.320312 C 28.1875 34.316406 28.1875 34.3125 28.183594 34.3125 C 25.722656 33.039062 23.027344 29.949219 22.707031 29.578125 C 22.703125 29.570312 22.710938 29.5625 22.71875 29.566406 C 24.121094 30.414062 24.894531 29.753906 24.964844 29.6875 C 24.96875 29.683594 24.96875 29.679688 24.964844 29.675781 C 21.6875 26.75 21.609375 21.300781 21.609375 21.300781 C 21.46875 18.191406 19.964844 15.664062 17.050781 13.660156 C 17.042969 13.65625 17.042969 13.648438 17.050781 13.644531 C 21.457031 11.535156 25.273438 15.792969 25.460938 16 C 25.464844 16.007812 25.46875 16.003906 25.472656 16 C 25.6875 15.546875 25.125 14.417969 25.035156 14.246094 C 25.03125 14.238281 25.039062 14.230469 25.046875 14.234375 C 31.375 17.492188 32.953125 25.113281 32.976562 25.398438 C 32.976562 25.402344 32.980469 25.40625 32.984375 25.402344 C 33.941406 25.203125 34.292969 23.847656 34.359375 23.546875 C 34.363281 23.535156 34.375 23.539062 34.378906 23.546875 C 34.894531 32.851562 30.320312 33.835938 29.738281 34.011719 C 29.730469 34.015625 29.726562 34.011719 29.730469 34.003906 C 31.691406 26.007812 26.105469 20.5 25.414062 19.855469 C 25.410156 19.851562 25.398438 19.859375 25.40625 19.867188 C 25.984375 20.625 26.660156 22.027344 27.109375 23.039062 C 27.410156 23.664062 27.683594 24.304688 27.933594 24.957031 C 28.238281 25.769531 28.5 26.601562 28.726562 27.445312 C 28.949219 28.300781 29.054688 29.183594 29.085938 30.066406 C 29.132812 31.835938 28.839844 33.570312 28.882812 35.253906 C 28.910156 36.09375 29.03125 36.917969 29.257812 37.710938 C 29.476562 38.507812 29.867188 39.242188 30.273438 39.957031 L 30.289062 39.988281 C 30.292969 39.996094 30.296875 40 30.300781 40.007812 C 30.433594 40.265625 30.320312 40.589844 30.042969 40.703125 C 29.800781 40.804688 29.519531 40.675781 29.398438 40.4375 " fill-opacity="1" fill-rule="nonzero"/></g><path fill="#08823f" d="M 35.757812 28.421875 C 35.757812 28.417969 35.753906 28.421875 35.753906 28.425781 C 35.636719 30.085938 34.980469 31.296875 33.769531 32.089844 C 33.769531 32.089844 31.601562 33.410156 31.203125 35.441406 C 31.203125 35.441406 31.203125 35.445312 31.199219 35.445312 C 31.15625 35.429688 30.710938 35.269531 30.71875 34.496094 C 30.714844 34.492188 30.710938 34.492188 30.710938 34.496094 C 30.652344 34.667969 30.261719 35.859375 30.136719 36.992188 L 30.140625 36.996094 C 30.113281 37.234375 30.097656 37.472656 30.101562 37.695312 C 30.101562 37.699219 30.101562 37.703125 30.101562 37.707031 C 30.117188 37.878906 30.144531 38.042969 30.179688 38.1875 C 30.773438 37.855469 31.421875 37.589844 32.023438 37.214844 C 32.367188 36.992188 32.699219 36.742188 32.988281 36.449219 C 33.273438 36.15625 33.542969 35.851562 33.796875 35.535156 C 34 35.28125 34.191406 35.015625 34.371094 34.746094 C 34.671875 34.324219 35.074219 33.714844 35.238281 33.300781 C 35.242188 33.296875 35.246094 33.300781 35.246094 33.304688 C 35.152344 33.738281 34.265625 37.316406 30.597656 38.40625 C 30.59375 38.410156 30.59375 38.410156 30.59375 38.414062 C 30.804688 38.609375 32.277344 40.242188 35.886719 37.832031 C 35.890625 37.828125 35.886719 37.824219 35.882812 37.824219 C 35.746094 37.871094 35.121094 38.046875 34.8125 37.703125 C 34.8125 37.703125 34.8125 37.699219 34.8125 37.699219 C 34.921875 37.621094 37.601562 35.175781 37.414062 31.824219 C 37.414062 31.820312 37.40625 31.820312 37.40625 31.820312 C 37.359375 31.898438 37.039062 32.394531 36.808594 32.414062 C 36.804688 32.414062 36.800781 32.414062 36.804688 32.410156 C 36.84375 32.285156 37.644531 29.722656 35.757812 28.421875 " fill-opacity="1" fill-rule="nonzero"/></svg>