<svg xmlns="http://www.w3.org/2000/svg" xmlns:xlink="http://www.w3.org/1999/xlink" width="60" zoomAndPan="magnify" viewBox="0 0 45 44.999999" height="60" preserveAspectRatio="xMidYMid meet" version="1.0"><defs><clipPath id="f9d3331cc4"><path d="M 17 33 L 38.726562 33 L 38.726562 42 L 17 42 Z M 17 33 " clip-rule="nonzero"/></clipPath><clipPath id="f0d6c71720"><path d="M 6.476562 31 L 15 31 L 15 43 L 6.476562 43 Z M 6.476562 31 " clip-rule="nonzero"/></clipPath></defs><path fill="#08823f" d="M 34.394531 0.0078125 L 12.953125 0.0078125 C 12.113281 0.0078125 11.476562 0.347656 11.035156 1.035156 C 10.597656 1.71875 10.378906 2.949219 10.378906 4.726562 C 10.378906 5.300781 10.496094 5.796875 10.730469 6.214844 C 10.96875 6.632812 11.292969 6.839844 11.707031 6.839844 C 12.007812 6.839844 12.269531 6.753906 12.484375 6.574219 C 12.703125 6.398438 12.945312 5.867188 13.21875 4.976562 C 13.484375 4.089844 13.871094 3.503906 14.378906 3.214844 C 14.878906 2.929688 15.449219 2.785156 16.082031 2.785156 L 26.257812 2.785156 C 27.675781 2.785156 28.382812 3.144531 28.382812 3.867188 C 28.382812 4.183594 28.28125 4.523438 28.078125 4.894531 C 27.871094 5.265625 27.75 5.496094 27.710938 5.589844 L 21.699219 17.097656 C 21.988281 16.980469 22.285156 16.867188 22.589844 16.761719 C 23.117188 16.582031 23.710938 16.742188 24.078125 17.152344 C 25.269531 16.617188 26.652344 16.230469 28.097656 16.230469 L 34.726562 3.425781 C 35.304688 2.3125 35.597656 1.554688 35.597656 1.148438 C 35.597656 0.386719 35.195312 0.0078125 34.394531 0.0078125 " fill-opacity="1" fill-rule="nonzero"/><g clip-path="url(#f9d3331cc4)"><path fill="#08823f" d="M 38.074219 35.082031 C 37.640625 33.9375 37.027344 33.363281 36.230469 33.363281 C 35.84375 33.363281 35.535156 33.496094 35.3125 33.753906 C 35.09375 34.011719 34.960938 34.65625 34.925781 35.683594 C 34.886719 36.710938 34.734375 37.367188 34.460938 37.65625 C 34.191406 37.945312 33.824219 38.085938 33.355469 38.085938 L 20.523438 38.085938 C 19.734375 38.589844 18.882812 39.070312 18.035156 39.441406 C 18.027344 39.507812 18.019531 39.570312 18.011719 39.632812 C 17.953125 40.109375 17.867188 40.574219 17.757812 41.03125 L 34.199219 41.03125 C 34.40625 41.03125 34.714844 41.035156 35.136719 41.042969 C 35.554688 41.050781 35.867188 41.058594 36.070312 41.058594 C 37.097656 41.058594 37.796875 40.875 38.167969 40.503906 C 38.539062 40.136719 38.726562 39.589844 38.726562 38.871094 C 38.726562 37.488281 38.507812 36.222656 38.074219 35.082031 " fill-opacity="1" fill-rule="nonzero"/></g><path fill="#08823f" d="M 14.535156 44.671875 C 15.078125 43.90625 15.601562 43.109375 15.941406 42.222656 C 16.296875 41.332031 16.523438 40.402344 16.640625 39.46875 C 16.679688 39.140625 16.703125 38.8125 16.726562 38.488281 C 16.726562 38.484375 16.726562 38.480469 16.730469 38.480469 C 19.519531 37.523438 22.828125 34.710938 23.222656 34.371094 C 23.230469 34.367188 23.21875 34.355469 23.210938 34.359375 C 21.601562 35.03125 20.882812 34.226562 20.820312 34.148438 C 20.816406 34.144531 20.816406 34.140625 20.820312 34.136719 C 24.722656 31.582031 25.617188 25.925781 25.617188 25.925781 C 26.230469 22.710938 28.195312 20.308594 31.574219 18.65625 C 31.578125 18.65625 31.582031 18.644531 31.574219 18.640625 C 27.234375 15.789062 22.5625 19.644531 22.335938 19.835938 C 22.332031 19.839844 22.328125 19.839844 22.324219 19.832031 C 22.164062 19.328125 22.929688 18.238281 23.046875 18.074219 C 23.050781 18.066406 23.046875 18.058594 23.039062 18.0625 C 15.863281 20.503906 13.058594 28.199219 12.992188 28.492188 C 12.992188 28.496094 12.988281 28.496094 12.984375 28.492188 C 12.003906 28.140625 11.832031 26.679688 11.808594 26.355469 C 11.804688 26.34375 11.792969 26.347656 11.789062 26.355469 C 9.855469 35.960938 14.542969 37.664062 15.132812 37.9375 C 15.136719 37.941406 15.140625 37.9375 15.140625 37.929688 C 14.261719 29.316406 20.984375 24.417969 21.808594 23.855469 C 21.816406 23.847656 21.828125 23.859375 21.820312 23.867188 C 21.09375 24.566406 20.171875 25.929688 19.546875 26.910156 C 19.132812 27.519531 18.75 28.144531 18.390625 28.78125 C 17.945312 29.585938 17.542969 30.410156 17.179688 31.253906 C 16.816406 32.109375 16.574219 33.015625 16.410156 33.929688 C 16.09375 35.761719 16.148438 37.609375 15.851562 39.355469 C 15.699219 40.226562 15.445312 41.066406 15.085938 41.855469 C 14.738281 42.652344 14.214844 43.359375 13.679688 44.042969 L 13.65625 44.070312 C 13.652344 44.078125 13.648438 44.082031 13.644531 44.089844 C 13.464844 44.339844 13.535156 44.695312 13.808594 44.851562 C 14.054688 44.996094 14.371094 44.902344 14.535156 44.671875 " fill-opacity="1" fill-rule="nonzero"/><g clip-path="url(#f0d6c71720)"><path fill="#08823f" d="M 8.371094 31.914062 C 8.375 31.910156 8.378906 31.914062 8.378906 31.917969 C 8.492188 33.5625 9.152344 34.757812 10.371094 35.542969 C 10.371094 35.542969 12.546875 36.847656 12.949219 38.855469 C 12.949219 38.859375 12.949219 38.859375 12.953125 38.859375 C 12.996094 38.84375 13.445312 38.6875 13.4375 37.921875 C 13.4375 37.917969 13.441406 37.917969 13.445312 37.921875 C 13.503906 38.09375 13.894531 39.269531 14.019531 40.390625 L 14.019531 40.394531 C 14.046875 40.628906 14.058594 40.863281 14.054688 41.085938 C 14.054688 41.089844 14.054688 41.09375 14.054688 41.097656 C 14.039062 41.269531 14.011719 41.429688 13.976562 41.574219 C 13.382812 41.246094 12.730469 40.980469 12.125 40.609375 C 11.777344 40.390625 11.449219 40.144531 11.15625 39.851562 C 10.871094 39.5625 10.597656 39.261719 10.34375 38.949219 C 10.140625 38.699219 9.945312 38.4375 9.765625 38.167969 C 9.464844 37.75 9.0625 37.148438 8.894531 36.738281 C 8.890625 36.734375 8.886719 36.738281 8.886719 36.742188 C 8.980469 37.171875 9.871094 40.714844 13.558594 41.792969 C 13.5625 41.792969 13.5625 41.792969 13.558594 41.796875 C 13.351562 41.988281 11.867188 43.605469 8.246094 41.222656 C 8.242188 41.21875 8.242188 41.214844 8.246094 41.214844 C 8.386719 41.257812 9.015625 41.433594 9.324219 41.09375 C 9.324219 41.09375 9.324219 41.089844 9.324219 41.089844 C 9.214844 41.015625 6.519531 38.59375 6.710938 35.277344 C 6.710938 35.273438 6.714844 35.273438 6.71875 35.277344 C 6.765625 35.351562 7.085938 35.84375 7.320312 35.863281 C 7.324219 35.863281 7.324219 35.859375 7.324219 35.859375 C 7.28125 35.734375 6.476562 33.199219 8.371094 31.914062 " fill-opacity="1" fill-rule="nonzero"/></g></svg>